<?xml version="1.0" standalone="no"?>
<!DOCTYPE svg PUBLIC "-//W3C//DTD SVG 20010904//EN"
 "http://www.w3.org/TR/2001/REC-SVG-20010904/DTD/svg10.dtd">
<svg version="1.0" xmlns="http://www.w3.org/2000/svg"
 width="600.000000pt" height="600.000000pt" viewBox="0 0 600.000000 600.000000"
 preserveAspectRatio="xMidYMid meet">
<metadata>
Created by potrace 1.16, written by Peter Selinger 2001-2019
</metadata>
<g transform="translate(0.000000,600.000000) scale(0.100000,-0.100000)"
fill="#000000" stroke="none">
<path d="M1750 5947 c0 -8 -10 -22 -22 -33 -23 -19 -23 -19 -8 1 13 19 13 19
-5 0 -11 -12 -29 -33 -40 -46 -11 -14 -16 -18 -11 -10 5 9 -6 0 -24 -19 -19
-19 -35 -37 -35 -40 0 -5 -76 -83 -734 -750 -208 -212 -478 -486 -600 -610
l-221 -225 0 -1225 0 -1225 186 -190 c103 -104 288 -294 413 -420 124 -127
261 -268 303 -313 43 -45 82 -82 87 -82 5 0 17 -10 26 -22 8 -13 167 -175 352
-360 l337 -338 1221 0 1222 0 786 788 c432 433 822 824 867 868 l80 81 0 1224
0 1224 -177 184 c-209 217 -285 294 -997 1009 l-539 542 -1234 0 c-1026 0
-1233 -2 -1233 -13z m3114 -1057 l776 -779 0 -1113 -1 -1113 -772 -778 -772
-778 -1105 1 -1105 1 -773 778 -772 779 0 1110 0 1110 776 781 776 781 1098 0
1097 0 777 -780z"/>
<path d="M2163 5430 c-15 -6 -23 -18 -23 -32 0 -32 39 -140 61 -169 l18 -24
767 1 768 2 17 21 c27 33 60 131 57 165 -3 31 -4 31 -73 37 -111 10 -1567 9
-1592 -1z"/>
<path d="M1878 5282 c-14 -10 -131 -126 -261 -259 -195 -198 -237 -246 -237
-269 0 -36 107 -144 142 -144 18 0 83 61 251 235 202 209 227 239 227 268 0
38 -61 171 -82 180 -9 3 -26 -2 -40 -11z"/>
<path d="M4061 5264 c-30 -38 -63 -134 -56 -162 3 -14 90 -111 192 -216 239
-246 271 -276 296 -276 11 0 45 25 79 58 43 44 58 66 58 87 0 24 -41 70 -253
282 -175 176 -259 253 -274 253 -12 0 -31 -12 -42 -26z"/>
<path d="M2288 5099 c-24 -14 -23 -65 3 -134 33 -89 32 -88 318 -91 135 -2
258 -1 273 2 34 7 41 28 41 123 0 116 14 111 -332 111 -175 0 -293 -5 -303
-11z"/>
<path d="M3105 5103 c-35 -8 -45 -33 -45 -115 0 -125 -13 -120 301 -116 l259
3 23 25 c32 33 57 100 57 150 0 34 -4 42 -26 50 -25 10 -529 12 -569 3z"/>
<path d="M3930 4948 c-28 -31 -70 -121 -70 -152 0 -29 25 -58 241 -278 80 -82
153 -148 163 -148 21 0 133 104 142 132 4 12 -4 33 -20 56 -39 57 -400 412
-419 412 -9 0 -26 -10 -37 -22z"/>
<path d="M1538 4472 c-567 -566 -535 -521 -407 -586 53 -26 84 -37 101 -33 33
9 915 895 923 929 5 21 -2 44 -32 100 -66 123 -21 155 -585 -410z"/>
<path d="M2448 4758 c-25 -8 -28 -15 -28 -51 0 -52 40 -141 72 -159 18 -10
122 -13 501 -13 l479 0 19 24 c11 13 28 54 40 91 27 92 20 105 -62 114 -101
10 -991 6 -1021 -6z"/>
<path d="M4704 4611 c-52 -37 -94 -88 -94 -112 0 -13 71 -94 186 -212 213
-219 287 -287 314 -287 28 0 143 55 164 79 14 15 17 26 10 41 -8 18 -388 405
-477 486 -20 19 -43 34 -51 34 -7 0 -31 -13 -52 -29z"/>
<path d="M1160 4563 c-272 -273 -440 -453 -440 -471 0 -16 17 -29 74 -57 125
-60 106 -70 379 204 272 272 258 242 164 339 -72 73 -90 71 -177 -15z"/>
<path d="M3770 4573 c-45 -72 -56 -113 -37 -149 18 -34 229 -253 269 -278 34
-22 50 -14 112 55 73 81 72 83 -106 265 -179 180 -189 185 -238 107z"/>
<path d="M1792 4248 c-200 -200 -372 -377 -383 -395 -25 -41 -15 -63 45 -98
90 -53 113 -52 187 7 78 63 628 637 635 663 12 47 -66 185 -104 185 -9 0 -180
-163 -380 -362z"/>
<path d="M4438 4342 c-32 -33 -58 -67 -58 -76 0 -18 255 -288 342 -363 61 -53
81 -54 176 -8 110 52 112 48 -136 297 -244 245 -234 240 -324 150z"/>
<path d="M2843 4310 c-34 -5 -72 -14 -85 -21 -22 -12 -20 -14 37 -31 63 -18
145 -77 145 -104 0 -17 -20 -21 -130 -28 -47 -4 -119 -15 -160 -26 -93 -24
-90 -24 -90 1 0 28 53 102 96 135 19 15 32 29 30 32 -11 10 -116 -23 -202 -63
-136 -63 -237 -136 -354 -254 -157 -159 -250 -308 -319 -516 -54 -160 -74
-280 -73 -440 0 -475 230 -908 608 -1150 223 -143 505 -212 752 -185 164 18
362 76 362 106 0 22 -27 71 -42 76 -7 3 -67 -5 -133 -18 -111 -22 -130 -23
-270 -14 -255 17 -450 74 -527 157 -54 58 -98 181 -98 274 0 87 30 211 67 279
75 139 272 364 387 443 91 62 131 102 186 187 127 199 164 399 115 631 -18 83
-56 186 -95 254 -17 29 -30 58 -30 64 0 16 70 14 120 -4 64 -23 202 -118 254
-176 62 -69 123 -196 136 -284 28 -176 -36 -354 -171 -481 -69 -64 -114 -90
-272 -154 -171 -70 -169 -65 -83 -214 75 -129 85 -136 155 -112 73 26 212 39
291 27 168 -26 274 -101 338 -239 23 -48 27 -70 27 -142 -1 -76 -4 -92 -35
-154 -25 -50 -57 -91 -115 -147 -44 -43 -90 -86 -102 -94 -25 -18 -29 -45 -11
-74 15 -24 4 -49 -27 -61 -14 -5 -28 -16 -30 -23 -3 -7 15 -50 39 -95 80 -149
116 -243 116 -306 0 -67 -30 -134 -82 -182 -67 -62 -72 -64 -210 -64 -82 0
-129 4 -134 11 -3 6 11 29 33 50 l39 40 96 2 c98 3 128 14 128 45 0 8 -9 45
-20 83 -33 108 -34 109 -270 109 -188 0 -198 -1 -216 -21 -19 -21 -104 -69
-122 -69 -5 0 -12 14 -16 32 -12 58 -11 58 -222 58 -157 0 -195 -3 -207 -15
-13 -12 -67 -156 -67 -177 0 -4 7 -14 16 -22 13 -13 46 -16 203 -16 211 0 215
-1 209 -67 l-3 -38 -258 -3 -258 -2 -26 -58 c-14 -31 -27 -80 -30 -109 l-6
-52 39 -7 c22 -4 341 -8 711 -8 511 -1 675 2 684 11 9 9 8 25 -5 70 -44 145
-45 125 8 178 57 57 80 101 97 182 11 52 17 63 37 68 27 7 750 719 772 761 10
18 11 30 4 42 -10 16 -115 73 -163 87 -21 6 -61 -30 -360 -329 -185 -185 -344
-336 -353 -336 -11 0 -33 33 -65 96 -46 91 -47 97 -29 108 143 86 307 244 402
387 240 360 303 803 172 1204 -98 303 -285 552 -529 708 -202 129 -385 186
-614 192 -71 2 -158 0 -192 -5z m-356 -342 c-3 -24 -11 -74 -18 -113 -26 -156
5 -282 126 -511 36 -69 65 -137 65 -152 0 -21 -23 -56 -88 -132 -272 -321
-390 -525 -408 -707 -4 -35 -11 -66 -17 -70 -6 -3 -23 9 -39 28 -80 95 -167
312 -195 483 -21 133 -13 368 15 476 79 296 250 548 479 703 74 50 87 49 80
-5z m466 -22 c100 -100 67 -295 -88 -515 -118 -167 -128 -171 -175 -68 -62
132 -66 296 -10 430 53 124 120 186 202 187 29 0 45 -7 71 -34z m250 -2572
c35 -19 62 -73 53 -108 -6 -25 -10 -26 -74 -26 -37 0 -83 -3 -102 -6 -52 -8
-72 12 -78 77 -5 61 4 74 53 82 43 7 115 -3 148 -19z m-94 -308 l43 -43 -27
-5 c-59 -12 -235 51 -235 83 0 5 40 9 88 9 l88 0 43 -44z"/>
<path d="M4223 4128 c-21 -18 -48 -44 -60 -58 -43 -48 -34 -64 111 -207 157
-155 160 -157 266 -95 100 58 98 68 -42 204 -174 169 -196 188 -217 188 -11 0
-37 -15 -58 -32z"/>
<path d="M604 3849 c-10 -16 -19 -1558 -9 -1636 5 -44 10 -54 29 -59 26 -6
119 27 168 59 l33 23 -3 764 c-2 421 -6 772 -8 781 -6 20 -112 69 -164 76 -25
4 -40 1 -46 -8z"/>
<path d="M5225 3824 c-104 -44 -93 45 -96 -828 l-3 -768 26 -23 c33 -28 151
-69 176 -61 17 6 20 21 26 114 3 59 7 434 7 834 1 573 -1 731 -11 743 -18 21
-56 18 -125 -11z"/>
<path d="M919 3713 c-16 -43 -8 -596 10 -616 20 -24 182 -24 206 -1 15 15 16
47 13 289 -3 251 -5 275 -22 294 -24 26 -116 61 -162 61 -28 0 -36 -5 -45 -27z"/>
<path d="M4900 3694 c-111 -43 -100 34 -100 -700 l0 -643 26 -20 c35 -28 132
-63 163 -59 25 3 26 6 33 88 10 140 9 1306 -2 1334 -12 33 -34 33 -120 0z"/>
<path d="M1260 3554 c-12 -31 -13 -424 -1 -443 12 -18 105 -33 159 -25 26 4
46 13 52 25 15 28 13 381 -3 402 -14 20 -136 67 -173 67 -17 0 -27 -8 -34 -26z"/>
<path d="M4595 3561 c-143 -53 -135 -37 -135 -283 0 -233 -6 -222 122 -216 65
3 82 7 94 23 22 30 20 457 -2 479 -19 19 -17 20 -79 -3z"/>
<path d="M926 2934 c-14 -13 -16 -56 -16 -313 0 -340 -1 -337 71 -329 56 7
136 44 152 72 15 27 11 554 -5 573 -16 20 -182 18 -202 -3z"/>
<path d="M1276 2934 c-24 -23 -24 -465 0 -488 20 -21 21 -20 107 9 109 38 107
32 107 265 0 167 -2 201 -16 214 -11 12 -36 16 -99 16 -63 0 -88 -4 -99 -16z"/>
<path d="M4484 2921 c-30 -13 -32 -33 -30 -228 2 -202 0 -197 111 -238 80 -29
109 -27 119 8 3 12 6 112 6 223 0 152 -3 205 -14 219 -10 14 -29 19 -92 22
-43 1 -89 -1 -100 -6z"/>
<path d="M2798 2850 c-48 -26 -86 -73 -140 -178 -96 -184 -118 -311 -78 -443
30 -101 63 -163 118 -222 101 -107 218 -167 329 -167 66 0 320 45 338 60 8 7
15 17 15 23 0 20 -292 538 -306 544 -25 10 -72 -18 -124 -73 -106 -112 -117
-201 -40 -321 20 -31 6 -39 -34 -21 -95 46 -143 127 -133 224 9 87 40 139 144
241 70 69 93 98 93 117 0 26 -87 192 -116 221 -19 19 -21 19 -66 -5z"/>
<path d="M3259 2540 c-65 -8 -79 -15 -79 -38 0 -18 281 -507 305 -531 18 -18
41 -8 112 47 68 55 103 127 103 214 0 75 -22 128 -76 187 -81 91 -226 139
-365 121z"/>
<path d="M1426 2240 c-74 -38 -86 -48 -86 -72 0 -20 726 -767 767 -789 31 -17
52 3 92 91 25 53 31 76 24 94 -4 13 -159 177 -343 365 -377 384 -349 364 -454
311z"/>
<path d="M1069 2113 c-115 -59 -118 -52 122 -303 111 -115 212 -213 225 -216
25 -7 72 28 133 98 l33 38 -21 32 c-34 56 -375 388 -398 388 -11 0 -54 -17
-94 -37z"/>
<path d="M4268 1690 c-281 -282 -458 -467 -458 -478 0 -24 65 -156 85 -172 10
-9 22 -10 34 -4 11 5 236 223 500 486 321 319 482 485 487 504 6 22 2 31 -17
47 -27 22 -142 77 -161 77 -7 0 -219 -207 -470 -460z"/>
<path d="M742 1965 c-40 -19 -75 -41 -78 -49 -10 -26 22 -65 267 -315 178
-182 242 -241 260 -241 27 0 149 120 149 146 0 17 -350 384 -431 452 -28 23
-61 42 -72 41 -12 0 -55 -16 -95 -34z"/>
<path d="M4959 1928 c-41 -40 -285 -286 -543 -545 -460 -464 -468 -473 -462
-505 10 -51 63 -158 82 -165 9 -3 27 0 39 8 13 8 278 267 589 576 378 376 568
571 572 590 8 32 -15 53 -98 90 -84 36 -96 32 -179 -49z"/>
<path d="M1607 1564 c-37 -36 -67 -71 -67 -78 0 -23 49 -78 236 -268 221 -224
216 -222 276 -113 21 39 38 82 38 97 0 22 -31 60 -146 180 -195 205 -240 248
-256 248 -8 0 -44 -30 -81 -66z"/>
<path d="M1402 1361 c-62 -50 -92 -87 -92 -117 0 -18 67 -91 259 -284 143
-143 266 -260 275 -260 24 0 40 23 76 104 30 70 32 79 19 104 -14 28 -467 492
-480 492 -4 0 -29 -18 -57 -39z"/>
<path d="M2161 771 c-20 -20 -60 -117 -68 -168 -5 -28 -2 -33 19 -38 14 -4
183 -7 376 -8 419 -2 388 -12 386 123 -1 48 -5 93 -9 99 -4 8 -113 11 -346 11
-319 0 -340 -1 -358 -19z"/>
<path d="M3020 771 c-16 -30 -13 -173 4 -197 14 -18 31 -19 360 -22 190 -1
360 1 378 6 45 11 46 33 8 132 -24 62 -38 83 -57 91 -13 5 -172 9 -353 9 -315
0 -330 -1 -340 -19z"/>
</g>
</svg>
